<svg id="artwork" xmlns="http://www.w3.org/2000/svg" viewBox="0 0 135 40"><style>.st0{fill:#a6a6a6}.st1{fill:#fff}.st2{fill:url(#SVGID_1_)}.st3{fill:url(#SVGID_2_)}.st4{fill:url(#SVGID_3_)}.st5{fill:url(#SVGID_4_)}.st6,.st7,.st8{opacity:.2;enable-background:new}.st7,.st8{opacity:.12}.st8{opacity:.25;fill:#fff}</style><path d="M130 40H5c-2.8 0-5-2.2-5-5V5c0-2.8 2.2-5 5-5h125c2.8 0 5 2.2 5 5v30c0 2.7-2.2 5-5 5z"/><path class="st0" d="M130 .8c2.3 0 4.2 1.9 4.2 4.2v30c0 2.3-1.9 4.2-4.2 4.2H5C2.7 39.2.8 37.3.8 35V5C.8 2.7 2.7.8 5 .8h125m0-.8H5C2.2 0 0 2.2 0 5v30c0 2.8 2.2 5 5 5h125c2.8 0 5-2.2 5-5V5c0-2.7-2.2-5-5-5z"/><path class="st1" d="M68.1 21.8c-2.4 0-4.3 1.8-4.3 4.3 0 2.4 1.9 4.3 4.3 4.3s4.3-1.8 4.3-4.3c0-2.6-1.9-4.3-4.3-4.3zm0 6.8c-1.3 0-2.4-1.1-2.4-2.6s1.1-2.6 2.4-2.6 2.4 1 2.4 2.6c0 1.5-1.1 2.6-2.4 2.6zm-9.3-6.8c-2.4 0-4.3 1.8-4.3 4.3 0 2.4 1.9 4.3 4.3 4.3s4.3-1.8 4.3-4.3c0-2.6-1.9-4.3-4.3-4.3zm0 6.8c-1.3 0-2.4-1.1-2.4-2.6s1.1-2.6 2.4-2.6 2.4 1 2.4 2.6c0 1.5-1.1 2.6-2.4 2.6zm-11.1-5.5v1.8H52c-.1 1-.5 1.8-1 2.3-.6.6-1.6 1.3-3.3 1.3-2.7 0-4.7-2.1-4.7-4.8s2.1-4.8 4.7-4.8c1.4 0 2.5.6 3.3 1.3l1.3-1.3c-1.1-1-2.5-1.8-4.5-1.8-3.6 0-6.7 3-6.7 6.6s3.1 6.6 6.7 6.6c2 0 3.4-.6 4.6-1.9 1.2-1.2 1.6-2.9 1.6-4.2 0-.4 0-.8-.1-1.1h-6.2zm45.4 1.4c-.4-1-1.4-2.7-3.6-2.7s-4 1.7-4 4.3c0 2.4 1.8 4.3 4.2 4.3 1.9 0 3.1-1.2 3.5-1.9l-1.4-1c-.5.7-1.1 1.2-2.1 1.2s-1.6-.4-2.1-1.3l5.7-2.4-.2-.5zm-5.8 1.4c0-1.6 1.3-2.5 2.2-2.5.7 0 1.4.4 1.6.9l-3.8 1.6zM82.6 30h1.9V17.5h-1.9V30zm-3-7.3c-.5-.5-1.3-1-2.3-1-2.1 0-4.1 1.9-4.1 4.3s1.9 4.2 4.1 4.2c1 0 1.8-.5 2.2-1h.1v.6c0 1.6-.9 2.5-2.3 2.5-1.1 0-1.9-.8-2.1-1.5l-1.6.7c.5 1.1 1.7 2.5 3.8 2.5 2.2 0 4-1.3 4-4.4V22h-1.8v.7zm-2.2 5.9c-1.3 0-2.4-1.1-2.4-2.6s1.1-2.6 2.4-2.6 2.3 1.1 2.3 2.6-1 2.6-2.3 2.6zm24.4-11.1h-4.5V30h1.9v-4.7h2.6c2.1 0 4.1-1.5 4.1-3.9s-2-3.9-4.1-3.9zm.1 6h-2.7v-4.3h2.7c1.4 0 2.2 1.2 2.2 2.1-.1 1.1-.9 2.2-2.2 2.2zm11.5-1.8c-1.4 0-2.8.6-3.3 1.9l1.7.7c.4-.7 1-.9 1.7-.9 1 0 1.9.6 2 1.6v.1c-.3-.2-1.1-.5-1.9-.5-1.8 0-3.6 1-3.6 2.8 0 1.7 1.5 2.8 3.1 2.8 1.3 0 1.9-.6 2.4-1.2h.1v1h1.8v-4.8c-.2-2.2-1.9-3.5-4-3.5zm-.2 6.9c-.6 0-1.5-.3-1.5-1.1 0-1 1.1-1.3 2-1.3.8 0 1.2.2 1.7.4-.2 1.2-1.2 2-2.2 2zm10.5-6.6l-2.1 5.4h-.1l-2.2-5.4h-2l3.3 7.6-1.9 4.2h1.9l5.1-11.8h-2zm-16.8 8h1.9V17.5h-1.9V30z"/><linearGradient id="SVGID_1_" gradientUnits="userSpaceOnUse" x1="21.77" y1="-512.68" x2="4.988" y2="-529.462" gradientTransform="matrix(1 0 0 -1 0 -504)"><stop offset="0" stop-color="#00a0ff"/><stop offset=".007" stop-color="#00a1ff"/><stop offset=".26" stop-color="#00beff"/><stop offset=".512" stop-color="#00d2ff"/><stop offset=".76" stop-color="#00dfff"/><stop offset="1" stop-color="#00e3ff"/></linearGradient><path class="st2" d="M10.4 7.5c-.3.3-.5.8-.5 1.4V31c0 .6.2 1.1.5 1.4l.1.1 12.4-12.4v-.2L10.4 7.5z"/><linearGradient id="SVGID_2_" gradientUnits="userSpaceOnUse" x1="33.834" y1="-524.05" x2="9.637" y2="-524.05" gradientTransform="matrix(1 0 0 -1 0 -504)"><stop offset="0" stop-color="#ffe000"/><stop offset=".409" stop-color="#ffbd00"/><stop offset=".775" stop-color="orange"/><stop offset="1" stop-color="#ff9c00"/></linearGradient><path class="st3" d="M27 24.3l-4.1-4.1V19.9l4.1-4.1.1.1 4.9 2.8c1.4.8 1.4 2.1 0 2.9l-5 2.7z"/><linearGradient id="SVGID_3_" gradientUnits="userSpaceOnUse" x1="24.816" y1="-526.284" x2="2.057" y2="-549.043" gradientTransform="matrix(1 0 0 -1 0 -504)"><stop offset="0" stop-color="#ff3a44"/><stop offset="1" stop-color="#c31162"/></linearGradient><path class="st4" d="M27.1 24.2L22.9 20 10.4 32.5c.5.5 1.2.5 2.1.1l14.6-8.4"/><linearGradient id="SVGID_4_" gradientUnits="userSpaceOnUse" x1="7.262" y1="-504.212" x2="17.424" y2="-514.374" gradientTransform="matrix(1 0 0 -1 0 -504)"><stop offset="0" stop-color="#32a071"/><stop offset=".069" stop-color="#2da771"/><stop offset=".476" stop-color="#15cf74"/><stop offset=".801" stop-color="#06e775"/><stop offset="1" stop-color="#00f076"/></linearGradient><path class="st5" d="M27.1 15.8L12.5 7.5c-.9-.5-1.6-.4-2.1.1L22.9 20l4.2-4.2z"/><path class="st6" d="M27 24.1l-14.5 8.2c-.8.5-1.5.4-2 0l-.1.1.1.1c.5.4 1.2.5 2 0L27 24.1z"/><path class="st7" d="M10.4 32.3c-.3-.3-.4-.8-.4-1.4v.1c0 .6.2 1.1.5 1.4v-.1h-.1zM32 21.3l-5 2.8.1.1 4.9-2.9c.7-.3 1-.8 1-1.3 0 .5-.4.9-1 1.3z"/><path class="st8" d="M12.5 7.6L32 18.7c.6.4 1 .8 1 1.3 0-.5-.3-1-1-1.4L12.5 7.5C11.1 6.7 10 7.4 10 9v.1c0-1.6 1.1-2.3 2.5-1.5z"/><path class="st1" d="M41.3 13V7h1.8c.9 0 1.7.3 2.2.8.6.6.8 1.3.8 2.2 0 .9-.3 1.6-.8 2.2-.6.6-1.3.8-2.2.8h-1.8zm.8-.7h1.1c.7 0 1.2-.2 1.6-.6.4-.4.6-1 .6-1.7s-.2-1.3-.6-1.7c-.4-.4-1-.6-1.6-.6h-1.1v4.6z"/><path class="st1" d="M43.1 13.1h-1.9V6.9h1.9c.9 0 1.7.3 2.3.8.6.6.8 1.3.8 2.3 0 .9-.3 1.6-.8 2.3-.6.5-1.3.8-2.3.8zm-1.7-.2h1.7c1 0 1.6-.2 2.1-.8.5-.6.8-1.3.8-2.1 0-1-.2-1.6-.8-2.1-.5-.5-1.3-.8-2.1-.8h-1.7v5.8zm1.8-.5H42V7.6h1.2c.7 0 1.3.2 1.7.6.4.4.6 1 .6 1.8s-.2 1.4-.6 1.8c-.5.4-1 .6-1.7.6zm-1-.2h1c.7 0 1.1-.2 1.5-.6.4-.4.6-.9.6-1.6s-.2-1.3-.6-1.6c-.4-.4-.9-.6-1.5-.6h-1v4.4zM47.3 13V7h.8v6h-.8z"/><path class="st1" d="M48.2 13.1h-1V6.9h1v6.2zm-.8-.2h.6V7.1h-.6v5.8zM51.1 13.1c-.4 0-.9-.1-1.3-.4-.4-.3-.7-.7-.8-1.2l.7-.3c.1.3.3.6.5.8.3.2.6.3.9.3.3 0 .6-.1.9-.3.2-.2.4-.4.4-.7 0-.3-.1-.6-.4-.8-.2-.2-.6-.4-1.1-.5-.5-.2-.9-.4-1.2-.6-.3-.3-.4-.6-.4-1s.2-.8.5-1.1c.3-.3.8-.5 1.3-.5s.9.1 1.2.4.5.5.6.8l-.7.3c-.1-.2-.2-.4-.4-.5-.2-.2-.5-.2-.8-.2s-.5.1-.8.2c-.1.2-.2.4-.2.7 0 .2.1.4.3.6s.5.3.9.4c.3.1.5.2.7.3.2.1.4.2.6.4.2.1.4.3.5.6.1.2.2.5.2.8s-.1.6-.2.8c-.1.2-.3.4-.5.5l-.6.3c-.3-.1-.5-.1-.8-.1z"/><path class="st1" d="M51.9 13.3c-.3-.1-.5-.1-.8-.1-.3 0-.9-.1-1.4-.4-.5-.3-.7-.8-.8-1.3v-.1l.9-.4v.1c.1.3.3.6.5.8.5.4 1.1.4 1.7 0 .2-.2.4-.4.4-.6 0-.3-.1-.6-.4-.7-.2-.2-.5-.4-1.1-.5-.5-.2-.9-.4-1.2-.6-.3-.3-.4-.6-.4-1.1 0-.4.2-.8.5-1.2.3-.3.9-.5 1.4-.5.6 0 1 .1 1.3.4.2.3.4.5.5.9v.1l-.9.4v-.1c-.1-.2-.2-.4-.3-.5-.2-.2-.4-.2-.7-.2-.2 0-.4.1-.6.1h-.1c-.1.2-.2.4-.2.6 0 .2.1.3.3.5.2.2.4.3.9.4.3.1.5.2.7.3.2.1.4.2.6.4.2.1.4.4.5.6.1.1.2.4.2.8s-.1.7-.2.8c-.1.2-.3.4-.5.5l-.8.6zm-2.8-1.7c.1.4.4.8.7 1.1.4.3 1 .4 1.2.4.3 0 .5 0 .8.1l.6-.3c.2-.1.4-.3.5-.5.1-.2.2-.5.2-.8s-.1-.5-.2-.8c-.1-.3-.3-.5-.5-.6-.2-.2-.4-.3-.6-.4-.2-.1-.4-.2-.7-.3-.4-.1-.7-.2-.9-.4-.2-.1-.3-.4-.3-.6 0-.3.1-.5.2-.7.1 0 .1 0 .2-.1.2-.1.4-.1.7-.1.3 0 .6 0 .9.2.1 0 .3.2.3.4l.5-.2c-.1-.2-.3-.4-.5-.7-.2-.3-.6-.4-1.1-.4-.5 0-.9.2-1.2.5-.3.3-.5.7-.5 1 0 .4.1.7.4.9.3.2.7.4 1.2.6.5.1.9.3 1.1.5.3.2.4.5.4.9 0 .3-.2.6-.4.8-.7.4-1.3.4-1.9 0-.2-.2-.4-.5-.5-.7l-.6.2zM55 13h-.8V7h2c.5 0 .9.2 1.3.5s.6.8.6 1.3-.2.9-.6 1.3c-.4.3-.8.5-1.3.5H55V13zm0-3.2h1.3c.3 0 .6-.1.8-.3.2-.2.3-.5.3-.7 0-.3-.1-.5-.3-.7-.2-.2-.5-.3-.8-.3H55v2z"/><path class="st1" d="M55.1 13.1h-1V6.9h2.1c.5 0 .9.2 1.4.5.4.3.6.8.6 1.4 0 .5-.2.9-.6 1.4-.5.4-.9.5-1.4.5h-1.1v2.4zm-.8-.2h.6v-2.4h1.3c.4 0 .8-.1 1.2-.5.4-.4.6-.7.6-1.2s-.2-1-.6-1.2c-.4-.3-.8-.5-1.2-.5h-1.9v5.8zm2-3h-1.4V7.7h1.4c.3 0 .7.1.9.3.2.2.3.5.3.8 0 .2-.1.5-.3.8-.2.2-.6.3-.9.3zm-1.2-.2h1.2c.3 0 .6-.1.7-.3.2-.2.3-.5.3-.6 0-.3-.1-.4-.3-.6-.2-.2-.4-.3-.7-.3h-1.2v1.8zM64 12.2c-.6.6-1.3.9-2.2.9-.9 0-1.6-.3-2.2-.9s-.9-1.3-.9-2.2.3-1.6.9-2.2 1.3-.9 2.2-.9c.9 0 1.6.3 2.2.9s.9 1.3.9 2.2c0 .9-.3 1.6-.9 2.2zm-3.8-.5c.4.4 1 .7 1.6.7s1.2-.2 1.6-.7c.4-.4.7-1 .7-1.7s-.2-1.3-.7-1.7c-.4-.4-1-.7-1.6-.7s-1.2.2-1.6.7a2.413 2.413 0 0 0 0 3.4z"/><path class="st1" d="M61.8 13.2c-.9 0-1.6-.3-2.3-.9-.6-.6-.9-1.4-.9-2.3s.3-1.6.9-2.3c.6-.6 1.4-.9 2.3-.9.9 0 1.6.3 2.3.9.6.7.9 1.4.9 2.3s-.3 1.6-.9 2.3c-.7.6-1.4.9-2.3.9zm0-6.2c-.9 0-1.5.3-2.1.9-.6.6-.9 1.3-.9 2.1s.3 1.5.9 2.1c.6.6 1.3.9 2.1.9.9 0 1.5-.3 2.1-.9.6-.6.9-1.3.9-2.1s-.3-1.5-.9-2.1c-.6-.6-1.2-.9-2.1-.9zm0 5.5c-.6 0-1.2-.3-1.7-.7-.5-.5-.7-1.1-.7-1.8s.3-1.3.7-1.8c.4-.5 1-.7 1.7-.7.6 0 1.2.3 1.7.7.5.4.7 1 .7 1.8 0 .7-.3 1.3-.7 1.8-.4.4-1 .7-1.7.7zm0-4.8c-.6 0-1.2.2-1.5.7-.4.4-.7 1-.7 1.6s.2 1.2.7 1.6c.4.4 1 .7 1.5.7.6 0 1.2-.2 1.5-.7.4-.4.7-1 .7-1.6 0-.7-.2-1.3-.7-1.6-.4-.4-1-.7-1.5-.7zM66 13V7h.9l2.9 4.7V7h.8v6h-.8l-3.1-4.9V13H66z"/><path class="st1" d="M70.7 13.1h-1l-2.9-4.6v4.7h-.9V6.9H67l2.7 4.4V6.9h1v6.2zm-.8-.2h.6V7.1h-.6v5l-3.1-5h-.7v5.8h.5V7.8l3.3 5.1z"/><g><path class="st1" d="M72 13V7h.8v6H72zm.7-6.5H72l.4-1.1h.8l-.5 1.1z"/><path class="st1" d="M72.9 13.1h-1V6.9h1v6.2zm-.8-.2h.6V7.1h-.6v5.8zm.7-6.3h-.9l.5-1.3h1l-.6 1.3zm-.7-.2h.5l.4-.9h-.6l-.3.9z"/></g><g><path class="st1" d="M75.6 13l-2.1-6h.9l1.6 4.9L77.7 7h.9l-2.2 6h-.8z"/><path class="st1" d="M76.5 13.1h-.9l-2.2-6.2h1.1l1.5 4.7 1.6-4.7h1.1V7l-2.2 6.1zm-.8-.2h.7l2.1-5.8h-.7L76 12.2l-1.7-5.1h-.7l2.1 5.8z"/></g><g><path class="st1" d="M83 7.7h-2.7v1.9h2.5v.7h-2.5v1.9H83v.8h-3.5V7H83v.7z"/><path class="st1" d="M83.1 13.1h-3.7V6.9h3.7v.9h-2.7v1.7h2.5v.9h-2.5v1.7h2.7v1zm-3.5-.2h3.3v-.6h-2.7v-2.1h2.5v-.5h-2.5V7.6h2.7v-.5h-3.3v5.8z"/></g><g><path class="st1" d="M84.2 13V7h.8v5.3h2.6v.7h-3.4z"/><path class="st1" d="M87.7 13.1h-3.6V6.9h1v5.3h2.6v.9zm-3.4-.2h3.2v-.5h-2.6V7.1h-.6v5.8z"/></g><g><path class="st1" d="M90.6 13V7h.9l2.9 4.7V7h.8v6h-.8l-3.1-4.9V13h-.7z"/><path class="st1" d="M95.3 13.1h-1l-2.9-4.6v4.7h-.9V6.9h1.1l2.7 4.4V6.9h1v6.2zm-.8-.2h.6V7.1h-.6v5l-3.1-5h-.7v5.8h.5V7.8l3.3 5.1z"/></g><g><path class="st1" d="M101.5 12.2c-.6.6-1.3.9-2.2.9-.9 0-1.6-.3-2.2-.9s-.9-1.3-.9-2.2.3-1.6.9-2.2 1.3-.9 2.2-.9c.9 0 1.6.3 2.2.9s.9 1.3.9 2.2c-.1.9-.4 1.6-.9 2.2zm-3.9-.5c.4.4 1 .7 1.6.7s1.2-.2 1.6-.7c.4-.4.7-1 .7-1.7s-.2-1.3-.7-1.7c-.4-.4-1-.7-1.6-.7s-1.2.2-1.6.7a2.413 2.413 0 0 0 0 3.4z"/><path class="st1" d="M99.3 13.2c-.9 0-1.6-.3-2.3-.9-.6-.6-.9-1.4-.9-2.3s.3-1.6.9-2.3c.6-.6 1.4-.9 2.3-.9.9 0 1.6.3 2.3.9.6.6.9 1.4.9 2.3-.1.9-.4 1.6-.9 2.3-.7.6-1.4.9-2.3.9zm0-6.2c-.9 0-1.5.3-2.1.9-.6.6-.9 1.3-.9 2.1s.3 1.5.9 2.1c.6.6 1.3.9 2.1.9s1.5-.3 2.1-.9c.5-.6.8-1.3.9-2.1 0-.8-.3-1.5-.9-2.1-.6-.6-1.2-.9-2.1-.9zm-.1 5.5c-.6 0-1.2-.3-1.7-.7-.5-.5-.7-1.1-.7-1.8s.3-1.3.7-1.8c.4-.5 1-.7 1.7-.7.6 0 1.2.3 1.7.7.5.4.7 1 .7 1.8 0 .7-.3 1.3-.7 1.8-.4.4-1 .7-1.7.7zm-1.5-.9c.4.4 1 .7 1.5.7.6 0 1.2-.2 1.5-.7.4-.4.7-1 .7-1.6 0-.7-.2-1.3-.7-1.6-.4-.4-1-.7-1.5-.7-.6 0-1.2.2-1.5.7-.5.4-.7 1-.7 1.6s.2 1.2.7 1.6z"/></g></svg>