<svg id="artwork" xmlns="http://www.w3.org/2000/svg" viewBox="0 0 135 40"><style>.st0{fill:#a6a6a6}.st1{fill:#fff}</style><path d="M130 40H5c-2.8 0-5-2.2-5-5V5c0-2.8 2.2-5 5-5h125c2.8 0 5 2.2 5 5v30c0 2.7-2.2 5-5 5z"/><path class="st0" d="M130 .8c2.3 0 4.2 1.9 4.2 4.2v30c0 2.3-1.9 4.2-4.2 4.2H5C2.7 39.2.8 37.3.8 35V5C.8 2.7 2.7.8 5 .8h125m0-.8H5C2.2 0 0 2.2 0 5v30c0 2.8 2.2 5 5 5h125c2.8 0 5-2.2 5-5V5c0-2.8-2.2-5-5-5z"/><path class="st1" d="M41.3 13V7h1.8c.9 0 1.7.3 2.2.8.6.6.8 1.3.8 2.2 0 .9-.3 1.6-.8 2.2-.6.6-1.3.8-2.2.8h-1.8zm.8-.7h1.1c.7 0 1.2-.2 1.6-.6.4-.4.6-1 .6-1.7s-.2-1.3-.6-1.7c-.4-.4-1-.6-1.6-.6h-1.1v4.6z"/><path class="st1" d="M43.1 13.1h-1.9V6.9h1.9c.9 0 1.7.3 2.3.8.6.6.8 1.3.8 2.3 0 .9-.3 1.6-.8 2.3-.6.5-1.3.8-2.3.8zm-1.7-.2h1.7c1 0 1.6-.2 2.1-.8.5-.6.8-1.3.8-2.1 0-1-.2-1.6-.8-2.1-.5-.5-1.3-.8-2.1-.8h-1.7v5.8zm1.8-.5H42V7.6h1.2c.7 0 1.3.2 1.7.6.4.4.6 1 .6 1.8s-.2 1.4-.6 1.8c-.5.4-1 .6-1.7.6zm-1-.2h1c.7 0 1.1-.2 1.5-.6.4-.4.6-.9.6-1.6s-.2-1.3-.6-1.6c-.4-.4-.9-.6-1.5-.6h-1v4.4zM47.3 13V7h.8v6h-.8z"/><path class="st1" d="M48.2 13.1h-1V6.9h1v6.2zm-.8-.2h.6V7.1h-.6v5.8zM51.1 13.1c-.4 0-.9-.1-1.3-.4-.4-.3-.7-.7-.8-1.2l.7-.3c.1.3.3.6.5.8.3.2.6.3.9.3.3 0 .6-.1.9-.3.2-.2.4-.4.4-.7 0-.3-.1-.6-.4-.8-.2-.2-.6-.4-1.1-.5-.5-.2-.9-.4-1.2-.6-.3-.3-.4-.6-.4-1s.2-.8.5-1.1c.3-.3.8-.5 1.3-.5s.9.1 1.2.4.5.5.6.8l-.7.3c-.1-.2-.2-.4-.4-.5-.2-.2-.5-.2-.8-.2s-.5.1-.8.2c-.2.2-.3.4-.3.6s.1.4.3.6.5.3.9.4c.3.1.5.2.7.3.2.1.4.2.6.4.2.1.4.3.5.6.1.2.2.5.2.8s-.1.6-.2.8-.3.4-.5.5l-.6.3h-.7z"/><path class="st1" d="M51.8 13.2h-.7c-.3 0-.9-.1-1.4-.4-.5-.3-.7-.8-.8-1.3v-.1l.9-.4v.1c.1.3.3.6.5.8.5.4 1.1.4 1.7 0 .2-.2.4-.4.4-.6 0-.3-.1-.6-.4-.7-.2-.2-.5-.4-1.1-.5-.5-.2-.9-.4-1.2-.6-.3-.3-.4-.6-.4-1.1 0-.4.2-.8.5-1.2.3-.3.9-.5 1.4-.5.6 0 1 .1 1.3.4.2.3.4.5.5.9v.1l-.9.4v-.1c-.1-.2-.2-.4-.3-.5-.2-.2-.4-.2-.7-.2-.2 0-.4.1-.6.1 0 0-.1 0-.2.1-.2.2-.3.3-.3.5s.1.3.3.5c.2.2.4.3.9.4.3.1.5.2.7.3.2.1.4.2.6.4.2.1.4.4.5.7.1.1.2.4.2.8s-.1.7-.2.8c-.1.2-.3.4-.5.5l-.7.4zm-2.7-1.6c.1.4.4.8.7 1.1.4.3 1 .4 1.2.4h.7l.6-.3c.2-.1.4-.3.5-.5.1-.2.2-.5.2-.8 0-.2-.1-.5-.2-.8-.1-.3-.3-.5-.5-.6-.2-.1-.3-.2-.5-.3-.2-.1-.4-.2-.7-.3-.4-.1-.7-.2-.9-.4-.2-.2-.3-.4-.3-.7s.1-.5.3-.7c.1 0 .1 0 .2-.1.2-.1.4-.1.7-.1.3 0 .6 0 .9.2 0 .1.2.3.2.5l.5-.2c-.1-.2-.3-.4-.5-.7-.2-.3-.6-.4-1.1-.4-.5 0-.9.2-1.2.5-.3.3-.5.7-.5 1 0 .4.1.7.4.9.3.2.7.4 1.2.6.5.1.9.3 1.1.5.3.2.4.5.4.9 0 .3-.2.6-.4.8-.7.4-1.3.4-1.9 0-.2-.2-.4-.5-.5-.8l-.6.3zM55 13h-.8V7h2c.5 0 .9.2 1.3.5s.6.8.6 1.3-.2.9-.6 1.3c-.4.3-.8.5-1.3.5H55V13zm0-3.2h1.3c.3 0 .6-.1.8-.3.2-.2.3-.5.3-.7 0-.3-.1-.5-.3-.7-.2-.2-.5-.3-.8-.3H55v2z"/><path class="st1" d="M55.1 13.1h-1V6.9h2.1c.6 0 1 .3 1.4.5.4.3.6.8.6 1.4 0 .5-.2.9-.6 1.4-.3.3-.8.5-1.4.5h-1.1v2.4zm-.8-.2h.6v-2.4h1.3c.4 0 .8-.1 1.2-.5.4-.4.6-.7.6-1.2s-.2-1-.6-1.2c-.4-.3-.8-.5-1.2-.5h-1.9v5.8zm2-3h-1.4V7.7h1.4c.3 0 .7.1.9.3.2.2.3.5.3.8 0 .2-.1.5-.3.8-.2.2-.6.3-.9.3zm-1.2-.2h1.2c.3 0 .6-.1.7-.3.2-.2.3-.5.3-.6 0-.3-.1-.4-.3-.6-.2-.2-.4-.3-.7-.3h-1.2v1.8zM64 12.2c-.6.6-1.3.9-2.2.9-.9 0-1.6-.3-2.2-.9s-.9-1.3-.9-2.2c0-.9.3-1.6.9-2.2s1.3-.9 2.2-.9c.9 0 1.6.3 2.2.9s.9 1.3.9 2.2-.3 1.6-.9 2.2zm-3.8-.5c.4.4 1 .7 1.6.7s1.2-.2 1.6-.7c.4-.4.7-1 .7-1.7s-.2-1.3-.7-1.7c-.4-.4-1-.7-1.6-.7s-1.2.2-1.6.7a2.413 2.413 0 0 0 0 3.4z"/><path class="st1" d="M61.8 13.2c-.9 0-1.6-.3-2.3-.9s-.9-1.4-.9-2.3c0-.9.3-1.6.9-2.3s1.4-.9 2.3-.9c.9 0 1.6.3 2.3.9s.9 1.4.9 2.3c0 .9-.3 1.6-.9 2.3s-1.4.9-2.3.9zm0-6.2c-.9 0-1.5.3-2.1.9-.6.6-.9 1.3-.9 2.1 0 .9.3 1.5.9 2.1.6.6 1.3.9 2.1.9.9 0 1.5-.3 2.1-.9.6-.6.9-1.3.9-2.1 0-.9-.3-1.5-.9-2.1-.6-.6-1.2-.9-2.1-.9zm0 5.5c-.6 0-1.2-.3-1.7-.7-.5-.5-.7-1.1-.7-1.8s.3-1.3.7-1.8c.4-.5 1-.7 1.7-.7.6 0 1.2.3 1.7.7.5.4.7 1 .7 1.8 0 .7-.3 1.3-.7 1.8-.4.4-1 .7-1.7.7zm0-4.8c-.6 0-1.2.2-1.5.7-.4.4-.7 1-.7 1.6 0 .6.2 1.2.7 1.6.4.4 1 .7 1.5.7.6 0 1.2-.2 1.5-.7.4-.4.7-1 .7-1.6 0-.7-.2-1.3-.7-1.6-.4-.4-1-.7-1.5-.7zM66 13V7h.9l2.9 4.7V7h.8v6h-.8l-3.1-4.9V13H66z"/><path class="st1" d="M70.7 13.1h-1l-2.9-4.6v4.7h-.9V6.9H67l2.7 4.4V6.9h1v6.2zm-.8-.2h.6V7.1h-.6v5l-3.1-5h-.7v5.8h.5V7.8l3.3 5.1zM72 13V7h.8v6H72zm.7-6.5H72l.4-1.1h.8l-.5 1.1z"/><path class="st1" d="M72.9 13.1h-1V6.9h1v6.2zm-.8-.2h.6V7.1h-.6v5.8zm.7-6.3h-.9l.5-1.3h1l-.6 1.3zm-.7-.2h.5l.4-.9h-.6l-.3.9z"/><g><path class="st1" d="M75.6 13l-2.1-6h.9l1.6 4.9L77.7 7h.9l-2.2 6h-.8z"/><path class="st1" d="M76.5 13.1h-.9l-2.2-6.2h1.1l1.5 4.7 1.6-4.7h1.1V7l-2.2 6.1zm-.8-.2h.7l2.1-5.8h-.7L76 12.2l-1.7-5.1h-.7l2.1 5.8z"/></g><g><path class="st1" d="M83 7.7h-2.7v1.9h2.5v.7h-2.5v2H83v.7h-3.5V7H83v.7z"/><path class="st1" d="M83.1 13.1h-3.7V6.9h3.7v.9h-2.7v1.7h2.5v.9h-2.5v1.8h2.7v.9zm-3.5-.2h3.3v-.5h-2.7v-2.2h2.5v-.5h-2.5V7.6h2.7v-.5h-3.3v5.8z"/></g><g><path class="st1" d="M84.2 13V7h.8v5.3h2.6v.7h-3.4z"/><path class="st1" d="M87.7 13.1h-3.6V6.9h1v5.3h2.6v.9zm-3.4-.2h3.2v-.5h-2.6V7.1h-.6v5.8z"/></g><g><path class="st1" d="M90.6 13V7h.9l2.9 4.7V7h.8v6h-.8l-3.1-4.9V13h-.7z"/><path class="st1" d="M95.3 13.1h-1l-2.9-4.6v4.7h-.9V6.9h1.1l2.7 4.4V6.9h1v6.2zm-.8-.2h.6V7.1h-.6v5l-3.1-5h-.7v5.8h.5V7.8l3.3 5.1z"/></g><g><path class="st1" d="M99.3 6.8H98l-2 6.3h1.1l.6-1.8h2l.6 1.8h1.1l-2.1-6.3zm-1.4 3.7l.5-1.6c.1-.5.2-.9.3-1.2.2.6.3 1.1.3 1.2l.5 1.6h-1.6z"/></g><g><path class="st1" d="M25.3 18.8c0-2.9 2.4-4.3 2.5-4.4-1.4-2-3.5-2.3-4.2-2.3-1.8-.2-3.5 1.1-4.4 1.1s-2.3-1-3.8-1c-1.9 0-3.8 1.2-4.8 2.9-2.1 3.6-.5 8.8 1.4 11.7 1 1.4 2.1 3 3.6 2.9s2-.9 3.8-.9 2.3.9 3.8.9c1.6 0 2.6-1.4 3.5-2.8 1.1-1.6 1.6-3.2 1.6-3.3.1-.1-3-1.3-3-4.8zm-2.9-8.6c.8-1 1.3-2.3 1.2-3.7-1.2.1-2.6.8-3.4 1.8-.7.9-1.4 2.3-1.2 3.6 1.2.1 2.6-.7 3.4-1.7z"/></g><g><path class="st1" d="M51.5 29.9h-2.2L48 26.1h-4.2l-1.2 3.8h-2.2l4.2-13h2.6l4.3 13zm-3.8-5.4l-1.1-3.4c-.1-.3-.3-1.2-.7-2.5-.1.6-.3 1.4-.6 2.5l-1.1 3.4h3.5zm14.5.6c0 1.6-.4 2.9-1.3 3.8-.8.8-1.7 1.2-2.9 1.2s-2.1-.4-2.7-1.3v4.9h-2.1V23.6c0-1 0-2-.1-3.1H55l.1 1.5c.7-1.1 1.8-1.7 3.2-1.7 1.1 0 2 .4 2.8 1.3s1.1 2.1 1.1 3.5zm-2.1.1c0-.9-.2-1.7-.6-2.3-.5-.6-1.1-.9-1.8-.9-.5 0-1 .2-1.4.5s-.7.8-.8 1.3c-.1.2-.1.4-.1.6V26c0 .7.2 1.3.6 1.7.4.5 1 .7 1.6.7.8 0 1.4-.3 1.8-.9.5-.5.7-1.3.7-2.3zm12.9-.1c0 1.6-.4 2.9-1.3 3.8-.8.8-1.7 1.2-2.9 1.2s-2.1-.4-2.7-1.3v4.9H64V23.6c0-1 0-2-.1-3.1h1.8l.1 1.5c.7-1.1 1.8-1.7 3.2-1.7 1.1 0 2 .4 2.8 1.3.9.9 1.2 2.1 1.2 3.5zm-2.1.1c0-.9-.2-1.7-.6-2.3-.5-.6-1.1-.9-1.8-.9-.5 0-1 .2-1.4.5s-.7.8-.8 1.3c-.1.3-.1.5-.1.6V26c0 .7.2 1.3.6 1.7.4.5 1 .7 1.6.7.8 0 1.4-.3 1.8-.9.5-.5.7-1.3.7-2.3zm14.2 1.1c0 1.1-.4 2-1.2 2.7-.8.8-2 1.1-3.5 1.1-1.4 0-2.5-.3-3.4-.8l.5-1.7c.9.5 1.9.8 3 .8.8 0 1.4-.2 1.8-.5.4-.4.7-.8.7-1.4 0-.5-.2-1-.5-1.3-.4-.4-1-.7-1.8-1-2.3-.9-3.4-2.1-3.4-3.7 0-1.1.4-1.9 1.2-2.6.8-.7 1.9-1 3.2-1 1.2 0 2.2.2 3 .6l-.5 1.7c-.7-.4-1.6-.6-2.5-.6-.7 0-1.3.2-1.7.5-.3.3-.5.7-.5 1.2s.2.9.6 1.3c.3.3 1 .6 1.9 1 1.1.5 1.9 1 2.5 1.6.4.4.6 1.2.6 2.1zm6.9-4.2h-2.3v4.6c0 1.2.4 1.7 1.2 1.7.4 0 .7 0 .9-.1l.1 1.6c-.4.2-1 .2-1.6.2-.8 0-1.5-.3-1.9-.8-.5-.5-.7-1.3-.7-2.5v-4.7h-1.4v-1.6h1.4v-1.7l2.1-.6v2.3h2.3l-.1 1.6zm10.4 3c0 1.4-.4 2.6-1.2 3.6-.9 1-2 1.4-3.4 1.4s-2.5-.5-3.3-1.4-1.2-2.1-1.2-3.5c0-1.5.4-2.6 1.3-3.6.8-.9 2-1.4 3.4-1.4s2.5.5 3.3 1.4c.7 1 1.1 2.1 1.1 3.5zm-2.2.1c0-.9-.2-1.6-.6-2.2-.4-.7-1.1-1.1-1.9-1.1s-1.5.4-1.9 1.1c-.4.6-.6 1.4-.6 2.3 0 .9.2 1.6.6 2.2.5.7 1.1 1.1 1.9 1.1s1.4-.4 1.9-1.1c.4-.7.6-1.5.6-2.3zm9-2.8c-.2 0-.4-.1-.7-.1-.7 0-1.3.3-1.7.8-.3.5-.5 1.1-.5 1.9v4.9h-2.1v-6.4c0-1 0-2-.1-3h1.8l.1 1.8h.1c.2-.6.6-1.1 1-1.5.4-.3 1-.5 1.5-.5h.5l.1 2.1zm9.3 2.4c0 .3 0 .6-.1.9h-6.3c0 .9.3 1.6.9 2.1.5.4 1.2.7 2 .7.9 0 1.8-.1 2.5-.4l.3 1.4c-.9.4-1.9.6-3.1.6-1.5 0-2.6-.4-3.4-1.3-.8-.9-1.2-2-1.2-3.4s.4-2.6 1.2-3.5c.8-1 1.9-1.5 3.3-1.5s2.4.5 3.1 1.5c.6.7.8 1.7.8 2.9zm-2-.6c0-.6-.1-1.2-.4-1.6-.4-.6-.9-.9-1.7-.9-.7 0-1.2.3-1.7.9-.3.5-.6 1-.6 1.6h4.4z"/></g></svg>