<?xml version="1.0" encoding="UTF-8"?>
<svg width="480px" height="528px" viewBox="0 0 480 528" version="1.1" xmlns="http://www.w3.org/2000/svg" xmlns:xlink="http://www.w3.org/1999/xlink">
    <title>ACB8CED6-57B1-4AB7-A375-70F80E66B09Amdpi/</title>
    <defs>
        <polygon id="path-1" points="0 317.094662 404.459786 317.094662 404.459786 0 0 0"></polygon>
        <linearGradient x1="60.9903275%" y1="4.94615078%" x2="26.5360307%" y2="71.8787395%" id="linearGradient-3">
            <stop stop-color="#00A0FF" offset="0%"></stop>
            <stop stop-color="#00A1FF" offset="1%"></stop>
            <stop stop-color="#00BEFF" offset="26%"></stop>
            <stop stop-color="#00D2FF" offset="51%"></stop>
            <stop stop-color="#00DFFF" offset="76%"></stop>
            <stop stop-color="#00E3FF" offset="100%"></stop>
        </linearGradient>
        <linearGradient x1="107.684729%" y1="50%" x2="-130.640394%" y2="50%" id="linearGradient-4">
            <stop stop-color="#FFE000" offset="0%"></stop>
            <stop stop-color="#FFBD00" offset="41%"></stop>
            <stop stop-color="#FFA500" offset="78%"></stop>
            <stop stop-color="#FF9C00" offset="100%"></stop>
        </linearGradient>
        <linearGradient x1="86.2709832%" y1="30.8725537%" x2="-50.1798561%" y2="136.108936%" id="linearGradient-5">
            <stop stop-color="#FF3A44" offset="0%"></stop>
            <stop stop-color="#C31162" offset="100%"></stop>
        </linearGradient>
        <linearGradient x1="-18.82494%" y1="-11.9103989%" x2="42.0863309%" y2="35.0790955%" id="linearGradient-6">
            <stop stop-color="#32A071" offset="0%"></stop>
            <stop stop-color="#2DA771" offset="7%"></stop>
            <stop stop-color="#15CF74" offset="48%"></stop>
            <stop stop-color="#06E775" offset="80%"></stop>
            <stop stop-color="#00F076" offset="100%"></stop>
        </linearGradient>
    </defs>
    <g id="Login-2-steps" stroke="none" stroke-width="1" fill="none" fill-rule="evenodd">
        <g id="[desktop]-1---Login---Informe-o-acesso" transform="translate(-180.000000, -218.000000)">
            <g id="Content" transform="translate(130.000000, 75.000000)">
                <g id="Ilustra" transform="translate(50.000000, 143.000000)">
                    <g id="Login_ibk-02">
                        <rect id="Rectangle" fill-rule="nonzero" x="0" y="0" width="480" height="464"></rect>
                        <g id="Group-59" transform="translate(38.000000, 73.000000)">
                            <path d="M110.564413,131.387302 L103.774377,151.417907 C102.303203,155.944597 102.642705,160.923957 104.792883,165.224312 L110.564413,176.654206 L108.301068,179.936056 C102.755872,188.310433 105.019217,199.513992 113.393594,205.059188 C115.65694,206.530362 118.259786,207.548868 120.862633,207.888369 L153.22847,212.528227 C154.925979,212.754562 156.623488,212.754562 158.320996,212.528227 L190.686833,207.888369 C200.645552,206.530362 207.435587,197.363814 206.07758,187.405095 C205.738078,184.689081 204.719573,182.199401 203.248399,179.936056 L201.098221,176.654206 L206.756584,165.224312 C208.906762,160.923957 209.246263,155.944597 207.775089,151.417907 L201.098221,131.387302 L110.564413,131.387302 Z" id="Fill-1" fill="#2B3939"></path>
                            <mask id="mask-2" fill="white">
                                <use xlink:href="#path-1"></use>
                            </mask>
                            <g id="Clip-4"></g>
                            <polygon id="Fill-3" fill="#DAE453" mask="url(#mask-2)" points="156.962989 190.120996 179.25694 190.120996 179.25694 180.841281 156.962989 180.841281"></polygon>
                            <polygon id="Fill-5" fill="#DAE453" mask="url(#mask-2)" points="132.518861 190.120996 156.962989 190.120996 156.962989 180.841281 132.518861 180.841281"></polygon>
                            <path d="M252.702038,176.65364 L231.540893,176.65364 C229.051213,176.65364 227.014202,174.616629 227.014202,172.126949 L227.014202,131.160401 C227.014202,128.671853 229.051213,126.633711 231.540893,126.633711 L252.702038,126.633711 C255.191718,126.633711 257.228729,128.671853 257.228729,131.160401 L257.228729,172.126949 C257.228729,174.616629 255.306017,176.65364 252.702038,176.65364" id="Fill-6" fill="#2B3939" mask="url(#mask-2)"></path>
                            <path d="M252.928599,190.008282 L256.663119,186.272631 C260.058137,182.877613 261.98198,178.238887 261.98198,173.48473 L261.98198,150.626075 C261.98198,147.344225 259.379133,144.741378 256.097283,144.741378 C254.174571,144.741378 252.362763,145.758752 251.23109,147.344225 L246.025396,155.039599 C239.122194,165.450986 238.331154,178.804723 243.875219,190.008282 L252.928599,190.008282 Z" id="Fill-7" fill="#BB8057" mask="url(#mask-2)"></path>
                            <path d="M168.958832,185.820867 C173.711857,180.048205 182.312569,179.257166 188.084099,184.009059 L209.812213,202.115821 L227.579473,216.941863 C231.427159,220.110547 231.992996,225.76891 228.824312,229.729764 C225.995131,233.124781 221.128939,234.03012 217.281252,231.766774 L197.250647,220.336881 L172.580184,206.417308 C171.901181,205.964639 171.222177,205.510838 170.656341,204.945002 C164.884811,200.193109 164.09264,191.705564 168.845665,185.934034 C168.958832,185.934034 168.958832,185.820867 168.958832,185.820867" id="Fill-8" fill="#DAE453" mask="url(#mask-2)"></path>
                            <path d="M229.50275,228.710579 L253.042672,190.120544 C255.983889,186.15969 255.191718,180.389291 251.230864,177.445811 C247.27001,174.504594 241.499611,175.296764 238.556131,179.257619 C238.216629,179.709156 237.990295,180.162957 237.650793,180.728793 L213.999967,219.317697 C211.395989,223.618053 212.753996,229.163248 217.054352,231.766095 C221.355839,234.368942 227.014202,233.012067 229.50275,228.710579" id="Fill-9" fill="#BB8057" mask="url(#mask-2)"></path>
                            <path d="M90.5335815,225.315562 L105.018991,207.323099 L122.673083,185.255483 C127.878777,179.709156 136.479489,179.369654 142.024685,184.462181 C147.004044,189.102038 147.796215,196.684245 143.948528,202.342608 C143.495859,202.908444 142.816856,203.47428 142.251019,204.040117 L120.862407,222.600679 L103.547816,237.878259 C99.5869623,241.045811 93.7022648,240.367939 90.759916,236.292786 C88.157069,233.23727 88.0439018,228.710579 90.5335815,225.315562" id="Fill-10" fill="#DAE453" mask="url(#mask-2)"></path>
                            <path d="M116.901893,273.298932 L89.7417502,237.085409 C86.7994014,233.124555 87.5915722,227.466192 91.5524263,224.410676 C95.5132804,221.35516 101.171643,222.260498 104.227159,226.221352 L131.387302,262.434875 C134.442818,266.39573 133.650647,271.940925 129.80296,274.996441 C129.689793,274.996441 129.689793,275.109609 129.576626,275.109609 C125.615772,278.051957 119.957409,277.259786 116.901893,273.298932" id="Fill-11" fill="#D08D5E" mask="url(#mask-2)"></path>
                            <path d="M125.049596,271.601423 L122.333581,217.281139 C121.428243,198.269039 136.02682,182.086121 155.152087,181.067616 L156.736428,181.067616 C175.748528,181.067616 191.252443,196.57153 191.139891,215.696797 L191.139891,217.281139 L188.423261,271.601423 L189.328599,280.654804 L124.144258,280.654804 L125.049596,271.601423 Z" id="Fill-12" fill="#DAE453" mask="url(#mask-2)"></path>
                            <polygon id="Fill-13" fill="#A9C82F" mask="url(#mask-2)" points="189.328939 280.654804 192.950291 316.868327 120.523245 316.868327 124.144597 280.654804"></polygon>
                            <path d="M169.411388,194.647687 C169.411388,202.116726 155.831317,217.281139 155.831317,217.281139 C155.831317,217.281139 142.251246,202.116726 142.251246,194.647687 C142.251246,187.178648 148.362278,181.067616 155.831317,181.067616 C163.300356,181.067616 169.411388,187.178648 169.411388,194.647687" id="Fill-14" fill="#FFFFFF" mask="url(#mask-2)"></path>
                            <path d="M113.84615,260.284698 L109.206293,264.924555 C106.150777,268.093238 106.263944,273.072598 109.432627,276.128114 C109.772129,276.467616 110.111631,276.69395 110.451132,276.920285 L124.370705,286.2 C127.539389,288.237011 131.61341,287.784342 134.216257,285.181495 C136.819104,282.578648 137.271773,278.504626 135.234762,275.335943 L125.955047,261.41637 C123.465367,257.795018 118.599175,256.88968 114.977823,259.379359 C114.638321,259.605694 114.185652,259.945196 113.84615,260.284698" id="Fill-15" fill="#D08D5E" mask="url(#mask-2)"></path>
                            <path d="M109.998577,265.26451 C110.338078,265.26451 110.564413,265.150211 110.790747,264.923876 L115.543772,260.28515 C115.996441,259.945648 116.109609,259.153478 115.770107,258.699677 C115.430605,258.24814 114.638434,258.133841 114.185765,258.474474 L113.959431,258.699677 L109.206406,263.340666 C108.753737,263.792204 108.753737,264.472339 109.206406,264.923876 C109.43274,265.150211 109.772242,265.26451 109.998577,265.26451" id="Fill-16" fill="#BB8057" mask="url(#mask-2)"></path>
                            <path d="M192.04484,135.800712 C197.044569,135.800712 201.098221,139.854363 201.098221,144.854093 C201.098221,149.853822 197.044569,153.907473 192.04484,153.907473 C187.04511,153.907473 182.991459,149.853822 182.991459,144.854093 C182.991459,139.854363 187.04511,135.800712 192.04484,135.800712" id="Fill-17" fill="#BB8057" mask="url(#mask-2)"></path>
                            <path d="M119.617794,135.800712 C124.617523,135.800712 128.671174,139.854363 128.671174,144.854093 C128.671174,149.853822 124.617523,153.907473 119.617794,153.907473 C114.618064,153.907473 110.564413,149.853822 110.564413,144.854093 C110.564413,139.854363 114.618064,135.800712 119.617794,135.800712" id="Fill-18" fill="#BB8057" mask="url(#mask-2)"></path>
                            <path d="M155.718036,199.174377 L155.718036,199.174377 C150.738677,199.174377 146.664656,195.100356 146.664656,190.120996 L146.664656,181.067616 L164.771417,181.067616 L164.771417,190.120996 C164.771417,195.100356 160.810563,199.174377 155.718036,199.174377" id="Fill-19" fill="#BB8057" mask="url(#mask-2)"></path>
                            <path d="M166.695487,181.972727 L184.802248,168.392656 C189.328939,164.997638 192.044953,159.56561 192.044953,153.907247 L192.044953,126.747105 C192.044953,106.7165 175.862035,90.5335815 155.83143,90.5335815 C135.800825,90.5335815 119.617907,106.7165 119.617907,126.747105 L119.617907,153.907247 C119.617907,159.56561 122.220754,164.997638 126.860611,168.392656 L144.967373,181.972727 C151.417907,186.83892 160.35812,186.83892 166.695487,181.972727" id="Fill-20" fill="#D08D5E" mask="url(#mask-2)"></path>
                            <path d="M155.831317,172.014235 C151.078292,172.014235 146.551601,170.203559 143.156584,166.921708 C142.251246,166.129537 142.138078,164.658363 142.930249,163.753025 C143.382918,163.187189 144.061922,162.960854 144.740925,162.960854 L166.808541,162.960854 C168.053381,162.960854 169.071886,163.866192 169.185053,165.111032 C169.185053,165.790036 168.958719,166.469039 168.392883,166.921708 C165.111032,170.203559 160.584342,172.014235 155.831317,172.014235" id="Fill-21" fill="#FFFFFF" mask="url(#mask-2)"></path>
                            <path d="M137.724555,150.285895 C137.045552,150.285895 136.592883,149.833226 136.592883,149.154222 C136.592883,147.230379 135.121708,145.759204 133.197865,145.759204 C131.387189,145.646037 129.916014,147.117211 129.802847,148.927888 L129.802847,149.154222 C129.802847,149.720058 129.237011,150.285895 128.671174,150.285895 C127.992171,150.285895 127.539502,149.833226 127.539502,149.154222 C127.539502,145.985539 130.029181,143.495859 133.197865,143.495859 C136.366548,143.495859 138.856228,145.985539 138.856228,149.154222 C138.856228,149.720058 138.403559,150.285895 137.724555,150.285895" id="Fill-22" fill="#2B3939" mask="url(#mask-2)"></path>
                            <path d="M182.991459,150.285895 C182.312456,150.285895 181.859786,149.833226 181.859786,149.154222 C181.859786,147.230379 180.388612,145.759204 178.464769,145.759204 C176.654093,145.646037 175.182918,147.117211 175.069751,148.927888 L175.069751,149.154222 C175.069751,149.720058 174.503915,150.285895 173.938078,150.285895 C173.259075,150.285895 172.806406,149.833226 172.806406,149.154222 C172.806406,145.985539 175.296085,143.495859 178.464769,143.495859 C181.633452,143.495859 184.123132,145.985539 184.123132,149.154222 C184.123132,149.720058 183.670463,150.285895 182.991459,150.285895" id="Fill-23" fill="#2B3939" mask="url(#mask-2)"></path>
                            <path d="M196.57153,149.946619 C199.009153,149.946619 200.985053,151.92252 200.985053,154.360142 C200.985053,156.797765 199.009153,158.773665 196.57153,158.773665 C194.133907,158.773665 192.158007,156.797765 192.158007,154.360142 C192.158007,151.92252 194.133907,149.946619 196.57153,149.946619" id="Fill-24" fill="#FBDA16" mask="url(#mask-2)"></path>
                            <path d="M115.091103,149.946619 C117.528726,149.946619 119.504626,151.92252 119.504626,154.360142 C119.504626,156.797765 117.528726,158.773665 115.091103,158.773665 C112.65348,158.773665 110.67758,156.797765 110.67758,154.360142 C110.67758,151.92252 112.65348,149.946619 115.091103,149.946619" id="Fill-25" fill="#FBDA16" mask="url(#mask-2)"></path>
                            <path d="M-0.00022633452,226.33452 L-0.00022633452,226.33452 C15.0510192,226.33452 27.159916,238.443416 27.159916,253.494662 C12.1086705,253.494662 -0.00022633452,241.385765 -0.00022633452,226.33452" id="Fill-26" fill="#74B23B" mask="url(#mask-2)"></path>
                            <path d="M-0.00022633452,190.120996 L-0.00022633452,190.120996 C15.0510192,190.120996 27.159916,202.229893 27.159916,217.281139 C12.1086705,217.281139 -0.00022633452,205.172242 -0.00022633452,190.120996" id="Fill-27" fill="#74B23B" mask="url(#mask-2)"></path>
                            <polygon id="Fill-28" fill="#F2EFEA" mask="url(#mask-2)" points="54.3200584 262.548043 -0.00022633452 262.548043 2.94212242 280.654804 51.2645423 280.654804"></polygon>
                            <path d="M2.94223559,280.654804 L8.37426406,313.133808 C8.71376584,315.283986 10.6376093,316.868327 12.7877872,316.868327 L41.4191039,316.868327 C43.5692819,316.868327 45.4931253,315.283986 45.832627,313.133808 L51.2646555,280.654804 L2.94223559,280.654804 Z" id="Fill-29" fill="#E4DDD3" mask="url(#mask-2)"></path>
                            <polygon id="Fill-30" fill="#C1BBB4" mask="url(#mask-2)" points="24.8967972 262.548043 29.4234875 262.548043 29.4234875 181.067616 24.8967972 181.067616"></polygon>
                            <path d="M27.0472014,217.281139 L27.0472014,217.281139 C27.0472014,202.229893 39.1560982,190.120996 54.2073438,190.120996 C54.2073438,205.172242 41.9852797,217.281139 27.0472014,217.281139" id="Fill-31" fill="#A9C82F" mask="url(#mask-2)"></path>
                            <path d="M-0.00022633452,153.907473 L-0.00022633452,153.907473 C15.0510192,153.907473 27.159916,166.01637 27.159916,181.067616 C12.1086705,181.067616 -0.00022633452,168.958719 -0.00022633452,153.907473" id="Fill-32" fill="#74B23B" mask="url(#mask-2)"></path>
                            <path d="M27.0472014,181.067616 L27.0472014,181.067616 C27.0472014,166.01637 39.1560982,153.907473 54.2073438,153.907473 C54.2073438,168.958719 41.9852797,181.067616 27.0472014,181.067616" id="Fill-33" fill="#A9C82F" mask="url(#mask-2)"></path>
                            <path d="M27.0472014,253.494662 L27.0472014,253.494662 C27.0472014,238.443416 39.1560982,226.33452 54.2073438,226.33452 C54.2073438,241.385765 41.9852797,253.494662 27.0472014,253.494662" id="Fill-34" fill="#A9C82F" mask="url(#mask-2)"></path>
                            <polygon id="Fill-35" fill="#8BDCDA" mask="url(#mask-2)" points="288.576286 102.529651 294.800485 114.072711 306.456713 120.410078 294.800485 126.747444 288.576286 138.290505 282.23892 126.747444 270.695859 120.410078 282.23892 114.072711"></polygon>
                            <polygon id="Fill-36" fill="#00AACA" mask="url(#mask-2)" points="320.716241 129.463232 325.582433 138.177111 334.296312 143.043303 325.582433 147.796328 320.716241 156.623374 315.963216 147.796328 307.136169 143.043303 315.963216 138.177111"></polygon>
                            <polygon id="Fill-37" fill="#0083C1" mask="url(#mask-2)" points="288.690132 156.510094 291.858816 162.507959 297.85668 165.677774 291.858816 168.958493 288.690132 174.84319 285.408282 168.958493 279.522453 165.677774 285.408282 162.507959"></polygon>
                            <path d="M313.926205,317.094888 L309.399515,317.094888 L309.399515,271.827984 C309.399515,263.114105 302.269977,255.984568 293.556098,255.984568 L230.182433,255.984568 C221.468554,255.984568 214.339016,263.114105 214.339016,271.827984 L214.339016,317.094888 L209.812326,317.094888 L209.812326,271.827984 C209.925493,260.624426 218.978874,251.571045 230.182433,251.457878 L293.556098,251.457878 C304.758525,251.571045 313.811906,260.624426 313.926205,271.827984 L313.926205,317.094888 Z" id="Fill-38" fill="#F2EFEA" mask="url(#mask-2)"></path>
                            <path d="M302.609479,190.347557 L365.983144,190.347557 C375.941863,190.347557 384.089906,198.4956 384.089906,208.454319 L384.089906,317.094888 L284.502717,317.094888 L284.502717,208.454319 C284.502717,198.4956 292.65076,190.347557 302.609479,190.347557" id="Fill-39" fill="#F2EFEA" mask="url(#mask-2)"></path>
                            <path d="M329.769621,317.094888 L329.769621,289.934746 C329.882789,279.976027 321.847913,271.941152 311.889194,271.827984 L311.66286,271.827984 L248.289194,271.827984 C238.330475,271.827984 230.182433,279.976027 230.182433,289.934746 L230.182433,317.094888" id="Fill-40" fill="#F2EFEA" mask="url(#mask-2)"></path>
                            <path d="M284.502717,244.667842 L329.769621,244.667842 C334.747849,244.667842 338.823002,248.741863 338.823002,253.721223 L338.823002,271.827984 L275.449337,271.827984 L275.449337,253.721223 C275.449337,248.741863 279.523358,244.667842 284.502717,244.667842" id="Fill-41" fill="#E4DDD3" mask="url(#mask-2)"></path>
                            <path d="M404.460013,317.094888 L399.933322,317.094888 L399.933322,271.827984 C399.933322,263.114105 392.803785,255.984568 384.089906,255.984568 L320.716241,255.984568 C312.002362,255.984568 304.872824,263.114105 304.872824,271.827984 L304.872824,317.094888 L300.346134,317.094888 L300.346134,271.827984 C300.459301,260.624426 309.512682,251.571045 320.716241,251.457878 L384.089906,251.457878 C395.292333,251.571045 404.345714,260.624426 404.460013,271.827984 L404.460013,317.094888 Z" id="Fill-42" fill="#C1BBB4" mask="url(#mask-2)"></path>
                            <path d="M72.9926562,99.5871886 C80.4922505,99.5871886 86.5727274,105.667665 86.5727274,113.16726 C86.5727274,120.666854 80.4922505,126.747331 72.9926562,126.747331 C65.4930619,126.747331 59.4125851,120.666854 59.4125851,113.16726 C59.4125851,105.667665 65.4930619,99.5871886 72.9926562,99.5871886" id="Fill-43" fill="#FEDF21" mask="url(#mask-2)"></path>
                            <path d="M82.046037,135.800712 C84.5459018,135.800712 86.5727274,137.827537 86.5727274,140.327402 C86.5727274,142.827267 84.5459018,144.854093 82.046037,144.854093 C79.5461722,144.854093 77.5193466,142.827267 77.5193466,140.327402 C77.5193466,137.827537 79.5461722,135.800712 82.046037,135.800712" id="Fill-44" fill="#FFB407" mask="url(#mask-2)"></path>
                            <path d="M201.098221,116.335717 C200.30605,92.0047559 180.388612,72.4268199 155.831317,72.4268199 C130.93452,72.4268199 110.564413,92.6837594 110.564413,117.693724 L110.564413,126.747105 L110.564413,135.800485 L128.671174,135.800485 C138.856228,135.800485 148.24911,132.405468 155.718149,126.747105 C166.695374,118.485895 173.824911,105.358493 173.938078,90.5335815 L173.938078,117.693724 C173.938078,120.975574 174.843416,124.03109 176.427758,126.747105 C179.596441,132.179133 185.367972,135.800485 192.04484,135.800485 L201.098221,135.800485 L201.098221,126.747105 L201.098221,117.693724 L201.098221,116.335717 Z" id="Fill-45" fill="#2B3939" mask="url(#mask-2)"></path>
                            <polygon id="Fill-46" fill="#2B3939" mask="url(#mask-2)" points="146.664769 99.7003559 164.77153 99.7003559 164.77153 81.5935943 146.664769 81.5935943"></polygon>
                            <path d="M160.018732,81.480427 L160.018732,81.480427 C157.755386,81.480427 155.831543,83.2911032 155.605209,85.5544484 C153.681365,102.303203 140.327628,115.543772 123.578874,117.467616 C121.315529,117.807117 119.61802,119.730961 119.61802,121.994306 C119.504853,124.483986 121.428696,126.520996 123.918376,126.520996 L124.597379,126.520996 C145.64649,124.144484 162.282077,107.508897 164.545422,86.4597865 C164.771757,83.9701068 162.96108,81.7067616 160.471401,81.480427 L160.018732,81.480427 Z" id="Fill-47" fill="#566160" mask="url(#mask-2)"></path>
                            <polygon id="Fill-48" fill="#C1BBB4" mask="url(#mask-2)" points="333.164413 54.3202847 335.427758 54.3202847 335.427758 0 333.164413 0"></polygon>
                            <path d="M334.296312,81.480427 C339.296041,81.480427 343.349693,85.5340783 343.349693,90.5338078 C343.349693,95.5335374 339.296041,99.5871886 334.296312,99.5871886 C329.295451,99.5871886 325.242931,95.5335374 325.242931,90.5338078 C325.242931,85.5340783 329.295451,81.480427 334.296312,81.480427" id="Fill-49" fill="#FEDF21" mask="url(#mask-2)"></path>
                            <path d="M366.661695,86.6862342 L343.34924,63.3737786 L343.34924,54.3203979 L325.242478,54.3203979 L325.242478,63.3737786 L301.930023,86.6862342 C301.024685,87.5915722 301.024685,89.0627466 301.930023,89.8549174 C302.382692,90.3075865 302.948528,90.533921 303.514364,90.533921 L364.964186,90.533921 C366.210158,90.533921 367.227532,89.6285829 367.341831,88.3837431 C367.341831,87.7047395 367.114364,87.1389032 366.661695,86.6862342" id="Fill-50" fill="#F2EFEA" mask="url(#mask-2)"></path>
                            <path d="M325.242931,54.3202847 L334.296312,54.3202847 L334.296312,58.8469751 C334.296312,61.3366548 332.259301,63.3736655 329.769621,63.3736655 C327.279942,63.3736655 325.242931,61.3366548 325.242931,58.8469751 L325.242931,54.3202847 Z" id="Fill-51" fill="#E4DDD3" mask="url(#mask-2)"></path>
                            <path d="M334.296312,45.2669039 L334.296312,45.2669039 C339.27454,45.2669039 343.349693,49.3409253 343.349693,54.3202847 L325.242931,54.3202847 C325.242931,49.3409253 329.316952,45.2669039 334.296312,45.2669039" id="Fill-52" fill="#F2EFEA" mask="url(#mask-2)"></path>
                            <path d="M122.786251,54.3202847 C127.78598,54.3202847 131.839631,58.3739359 131.839631,63.3736655 C131.839631,68.373395 127.78598,72.4270463 122.786251,72.4270463 C117.786521,72.4270463 113.73287,68.373395 113.73287,63.3736655 C113.73287,58.3739359 117.786521,54.3202847 122.786251,54.3202847" id="Fill-53" fill="#FEDF21" mask="url(#mask-2)"></path>
                            <path d="M118.25956,36.2135231 C120.759425,36.2135231 122.786251,38.2403488 122.786251,40.7402135 C122.786251,43.2400783 120.759425,45.2669039 118.25956,45.2669039 C115.759695,45.2669039 113.73287,43.2400783 113.73287,40.7402135 C113.73287,38.2403488 115.759695,36.2135231 118.25956,36.2135231" id="Fill-54" fill="#FFB407" mask="url(#mask-2)"></path>
                            <path d="M145.419702,45.2669039 C147.919567,45.2669039 149.946393,47.2937295 149.946393,49.7935943 C149.946393,52.2934591 147.919567,54.3202847 145.419702,54.3202847 C142.919838,54.3202847 140.893012,52.2934591 140.893012,49.7935943 C140.893012,47.2937295 142.919838,45.2669039 145.419702,45.2669039" id="Fill-55" fill="#FEDF21" mask="url(#mask-2)"></path>
                            <path d="M94.8342769,69.9371402 C94.8342769,62.2417665 90.081252,55.451731 82.8385473,52.848884 L82.8385473,51.8303786 L76.7275153,51.8303786 C66.7687964,51.8303786 58.6207537,59.9784214 58.6207537,69.9371402 C58.6207537,79.8958591 66.7687964,88.0439018 76.7275153,88.0439018 L82.8385473,88.0439018 L82.8385473,87.0253964 C90.081252,84.4225495 94.9474441,77.6325139 94.8342769,69.9371402" id="Fill-56" fill="#FF9700" mask="url(#mask-2)"></path>
                            <path d="M82.8384342,51.8303786 C92.8378932,51.8303786 100.945196,59.9376811 100.945196,69.9371402 C100.945196,79.937731 92.8378932,88.0439018 82.8384342,88.0439018 C72.8389751,88.0439018 64.7316726,79.937731 64.7316726,69.9371402 C64.7316726,59.9376811 72.8389751,51.8303786 82.8384342,51.8303786" id="Fill-57" fill="#FEDF21" mask="url(#mask-2)"></path>
                            <path d="M82.9517146,81.9329829 C82.4990456,81.9329829 82.1595438,81.8198157 81.820042,81.5934811 C81.5937075,81.3671466 81.367373,81.0276448 81.367373,80.6881431 L81.367373,79.3301359 C80.1225331,79.2169687 78.8776932,78.8774669 77.7460206,78.3116306 C76.614348,77.7457943 75.70901,76.9536235 75.0300064,75.9351181 C74.9168391,75.7087836 74.8036719,75.4824491 74.8036719,75.2561146 C74.8036719,74.9166128 74.9168391,74.577111 75.2563409,74.3507765 C76.0485117,73.671773 77.2933516,73.7849402 77.9723552,74.577111 C79.1040278,76.0482854 80.9147039,76.9536235 82.8385473,76.727289 C83.9702199,76.727289 85.2150598,76.5009544 86.2335651,75.9351181 C86.9125687,75.4824491 87.2520705,74.6902783 87.2520705,73.8981075 C87.2520705,73.3322712 87.0257359,72.7664349 86.5730669,72.4269331 C86.1203979,71.9742641 85.4413943,71.6347623 84.7623907,71.4084278 L82.0463765,70.6162569 L79.217195,69.7109189 C78.3118569,69.3714171 77.4065189,68.8055808 76.7275153,68.1265772 C76.161679,67.3344064 75.8221772,66.4290683 75.8221772,65.410563 C75.8221772,64.0525559 76.3880135,62.807716 77.4065189,62.0155452 C78.5381915,61.1102071 79.8961986,60.6575381 81.367373,60.5443708 L81.367373,59.1863637 C81.367373,58.8468619 81.5937075,58.5073601 81.820042,58.2810256 C82.4990456,57.8283566 83.4043836,57.8283566 84.0833872,58.2810256 C84.3097217,58.5073601 84.422889,58.8468619 84.422889,59.1863637 L84.422889,60.5443708 C86.5730669,60.6575381 88.7232448,61.6760434 90.081252,63.3735523 C90.3075865,63.5998868 90.4207537,63.8262214 90.4207537,64.1657231 C90.4207537,64.5052249 90.1944192,64.8447267 89.9680847,65.0710612 C89.1759139,65.7500648 88.0442413,65.6368975 87.3652377,64.957894 C86.2335651,63.7130541 84.6492235,63.0340505 82.9517146,63.1472178 C81.9332093,63.0340505 81.0278712,63.2603851 80.1225331,63.8262214 C79.5566968,64.1657231 79.3303623,64.7315594 79.3303623,65.410563 C79.3303623,65.9763993 79.6698641,66.5422356 80.2357004,66.8817374 C81.0278712,67.3344064 81.9332093,67.6739082 82.8385473,67.9002427 L86.2335651,68.918748 C87.3652377,69.2582498 88.4969103,69.9372534 89.4022484,70.7294242 C90.3075865,71.521595 90.7602555,72.6532676 90.7602555,73.8981075 C90.8734228,75.3692819 90.1944192,76.8404562 88.9495794,77.7457943 C87.5915722,78.6511324 86.0072306,79.2169687 84.422889,79.3301359 L84.422889,80.6881431 C84.422889,81.0276448 84.3097217,81.3671466 83.9702199,81.5934811 C83.7438854,81.8198157 83.4043836,81.9329829 82.9517146,81.9329829" id="Fill-58" fill="#FFB407" mask="url(#mask-2)"></path>
                        </g>
                    </g>
                </g>
            </g>
        </g>
    </g>
</svg>